HIERARCHY
ROOT hip
{
	OFFSET 0.000000 0.000000 0.000000 
	CHANNELS 6 Xposition Yposition Zposition Xrotation Zrotation Yrotation
	JOINT abdomen
	{
		OFFSET 0.000000 3.402643 0.000000 
		CHANNELS 3 Xrotation Zrotation Yrotation
		JOINT chest
		{
			OFFSET 0.000000 8.438565 -0.680529 
			CHANNELS 3 Xrotation Zrotation Yrotation
			JOINT neck
			{
				OFFSET 0.000000 10.207942 -0.272212 
				CHANNELS 3 Xrotation Zrotation Yrotation
				JOINT head
				{
					OFFSET 0.000000 3.130431 0.000000 
					CHANNELS 3 Xrotation Zrotation Yrotation
					End Site
					{
						OFFSET 0.000000 3.130435 0.000000 
					}
				}
			}
			JOINT lCollar
			{
				OFFSET 3.470700 6.669187 -0.816635 
				CHANNELS 3 Yrotation Zrotation Xrotation
				JOINT lShldr
				{
					OFFSET 3.198488 0.000000 0.000000 
					CHANNELS 3 Zrotation Yrotation Xrotation
					JOINT lForeArm
					{
						OFFSET 10.139888 0.000000 0.000000 
						CHANNELS 3 Yrotation Zrotation Xrotation
						JOINT lHand
						{
							OFFSET 8.370511 0.000000 0.000000 
							CHANNELS 3 Zrotation Yrotation Xrotation
							End Site
							{
								OFFSET 4.083176 0.000000 0.000000 
							}
						}
					}
				}
			}
			JOINT rCollar
			{
				OFFSET -3.470700 6.669187 -0.816635 
				CHANNELS 3 Yrotation Zrotation Xrotation
				JOINT rShldr
				{
					OFFSET -3.198488 0.000000 0.000000 
					CHANNELS 3 Zrotation Yrotation Xrotation
					JOINT rForeArm
					{
						OFFSET -10.139888 0.000000 0.000000 
						CHANNELS 3 Yrotation Zrotation Xrotation
						JOINT rHand
						{
							OFFSET -8.370511 0.000000 0.000000 
							CHANNELS 3 Zrotation Yrotation Xrotation
							End Site
							{
								OFFSET -4.083176 0.000000 0.000000 
							}
						}
					}
				}
			}
		}
	}
	JOINT lThigh
	{
		OFFSET 5.308129 -1.633274 1.361059 
		CHANNELS 3 Xrotation Zrotation Yrotation
		JOINT lShin
		{
			OFFSET -2.041588 -20.007561 0.000000 
			CHANNELS 3 Xrotation Zrotation Yrotation
			JOINT lFoot
			{
				OFFSET 0.000000 -19.190928 -1.224953 
				CHANNELS 3 Xrotation Yrotation Zrotation
				End Site
				{
					OFFSET 0.000000 -2.449906 4.627600 
				}
			}
		}
	}
	JOINT rThigh
	{
		OFFSET -5.308129 -1.633274 1.361059 
		CHANNELS 3 Xrotation Zrotation Yrotation
		JOINT rShin
		{
			OFFSET 2.041588 -20.007561 0.000000 
			CHANNELS 3 Xrotation Zrotation Yrotation
			JOINT rFoot
			{
				OFFSET 0.000000 -19.190928 -1.224953 
				CHANNELS 3 Xrotation Yrotation Zrotation
				End Site
				{
					OFFSET 0.000000 -2.449906 4.627600 
				}
			}
		}
	}
}
MOTION
Frames: 10
Frame Time: 0.011111
-104.921432 49.231487 -13.560475 3.382392 -4.916501 90.148743 14.374292 -7.521267 -4.148754 -19.250683 2.761714 -0.191631 -12.555611 -0.929517 0.039204 46.245361 -0.026896 1.487968 2.785591 -10.422155 1.651026 -66.829559 -38.391262 2.873743 -35.390484 2.950965 2.844458 8.524705 12.647240 -66.419319 2.149531 12.114442 0.054873 66.236588 28.507004 -33.087563 34.466084 -2.572962 2.560281 -8.534408 -12.637552 -0.992329 -8.072608 7.302116 -5.789755 33.046741 -5.142505 -5.250057 -36.190239 0.066918 -0.554099 -8.873342 -16.576773 3.184050 30.596195 5.278011 4.933259 -29.878511 -11.542725 -4.018215 
-104.900032 49.267853 -13.546540 3.363134 -5.320533 89.606079 13.967813 -7.658031 -3.700831 -19.045481 2.731660 -0.055134 -13.022223 -0.957194 0.001925 46.480633 0.060732 1.457173 2.785591 -10.422155 1.651026 -66.748138 -38.627491 2.848646 -35.390484 2.950965 2.844458 8.524705 12.647240 -66.516975 2.149531 12.114442 0.054873 66.298096 28.744984 -33.039421 34.456322 -2.573458 2.559557 -8.534408 -12.637552 -0.865376 -8.376377 7.332200 -5.708162 32.986691 -5.147881 -5.246334 -36.434929 0.296952 -0.356376 -9.557982 -16.753941 2.329954 30.656160 5.277071 4.928426 -29.669098 -10.274957 -3.378562 
-104.871475 49.218571 -13.548918 3.328482 -4.860267 89.558395 14.429149 -7.594059 -3.793731 -19.172541 2.741560 -0.090391 -12.615570 -0.982957 0.068173 46.177677 0.118936 1.592675 2.785591 -10.422155 1.651026 -66.759438 -38.383015 2.510956 -35.470272 2.985665 2.869817 8.524705 12.647240 -66.702530 2.149531 12.114442 0.054873 66.337143 28.453531 -31.838943 34.565430 -2.615660 2.590977 -8.534408 -12.637552 0.199077 -7.800798 7.264203 -6.096682 32.985691 -5.157629 -5.239302 -36.677555 0.571645 -0.096808 -8.982487 -16.628006 2.827214 30.606098 5.278047 4.934140 -29.754425 -10.637583 -3.567832 
-104.910561 49.266834 -13.567272 3.245682 -5.286220 89.760185 14.150805 -7.404254 -3.934680 -19.133587 2.703035 -0.137730 -12.479284 -1.174627 0.107323 45.751553 0.480233 1.729593 2.785591 -10.422155 1.651026 -66.805878 -38.567627 2.082088 -35.430103 2.964643 2.859421 8.524705 12.647240 -67.132217 2.149531 12.114442 0.054873 66.282928 28.538759 -31.320669 34.585197 -2.622694 2.597976 -8.534408 -12.637552 0.677593 -8.416811 7.401523 -5.895173 32.957031 -5.147779 -5.243702 -36.336601 0.472690 -0.226497 -9.412171 -16.491812 3.260526 30.568029 5.263438 4.946385 -29.810678 -10.963700 -3.706346 
-104.906822 49.268875 -13.553337 3.236192 -5.223349 89.954674 14.291497 -7.421901 -4.141843 -19.093983 2.830683 -0.193153 -12.275085 -1.278033 0.139199 45.333385 0.623650 1.805465 2.785591 -10.422155 1.651026 -66.860924 -38.712971 1.698587 -35.340569 2.930453 2.833338 8.524705 12.647240 -67.464241 2.149531 12.114442 0.054873 66.193352 28.573238 -31.221767 34.565430 -2.615660 2.590977 -8.534408 -12.637552 0.658062 -8.407663 7.499610 -5.582410 32.986691 -5.147876 -5.246333 -36.151608 0.201374 -0.469605 -9.223280 -16.466841 3.079434 30.535566 5.287515 4.919823 -29.936268 -10.812566 -3.694715 
-104.891869 49.287228 -13.523427 3.115142 -5.417317 89.543022 13.990692 -7.446628 -3.900193 -19.053848 3.084054 -0.129814 -12.168993 -1.244519 0.156846 45.358444 0.269436 1.702523 2.785591 -10.422155 1.651026 -66.987740 -38.632057 2.013793 -35.390484 2.950965 2.844458 8.524705 12.647240 -67.024788 2.149531 12.114442 0.054873 66.034348 28.486725 -30.936209 34.575447 -2.623198 2.597245 -8.534408 -12.637552 0.755718 -8.531683 7.761083 -5.104541 32.945827 -5.157472 -5.245480 -36.112106 0.076377 -0.558281 -9.526895 -16.331812 2.989384 30.517197 5.278008 4.915703 -29.632599 -10.702701 -3.565647 
-104.893227 49.266155 -13.567272 3.208964 -5.208553 90.124199 14.388003 -7.314473 -4.434299 -19.210367 3.075146 -0.284781 -12.042062 -1.195905 0.152115 45.365814 -0.024777 1.594549 2.785591 -10.422155 1.651026 -67.033745 -38.523590 2.464053 -35.450459 2.978840 2.862571 8.524705 12.647240 -66.516975 2.149531 12.114442 0.054873 65.964256 28.375481 -30.490992 34.605228 -2.637762 2.610522 -8.534408 -12.637552 1.068218 -8.404588 7.604749 -5.270095 32.925056 -5.167161 -5.236690 -35.865784 -0.153063 -0.753648 -9.135264 -16.476295 2.688356 30.525972 5.287516 4.909252 -29.682028 -11.074987 -3.735615 
-104.866379 49.274651 -13.530904 3.334383 -5.324417 89.736755 14.277719 -7.629184 -4.309825 -19.199898 3.250469 -0.224164 -12.094530 -1.310160 0.224203 45.298203 0.156080 1.780607 2.785591 -10.422155 1.651026 -67.057861 -38.640297 1.702744 -35.330524 2.923041 2.826914 8.524705 12.647240 -67.200569 2.149531 12.114442 0.054873 65.956558 28.345730 -30.227173 34.615242 -2.636667 2.601511 -8.534408 -12.637552 1.204937 -8.374758 7.584769 -4.788947 32.906933 -5.157404 -5.222598 -35.903137 -0.283868 -0.834872 -9.372271 -16.607397 2.737279 30.525972 5.287509 4.909251 -29.636608 -10.733557 -3.552770 
-104.860939 49.275333 -13.534643 3.305000 -5.293144 89.665627 14.421091 -7.520957 -4.353731 -19.189846 3.319033 -0.242546 -12.372503 -1.421107 0.306584 45.521534 0.106052 1.926502 2.785591 -10.422155 1.651026 -67.194107 -38.822941 1.008399 -35.231255 2.889286 2.800690 8.524705 12.647240 -67.796280 2.149531 12.114442 0.054873 65.825752 28.417213 -29.746826 34.595211 -2.630229 2.604247 -8.534408 -12.637552 1.644390 -8.304020 7.641462 -4.643261 32.897045 -5.157371 -5.221722 -35.912766 -0.298831 -0.835014 -9.341350 -16.448706 3.442648 30.556835 5.278149 4.920117 -29.680342 -11.279026 -3.813338 
-104.870453 49.281788 -13.523767 3.109302 -5.381995 89.680054 14.323059 -7.301943 -4.375344 -19.150095 3.475714 -0.267523 -12.364009 -1.416887 0.326253 45.723911 -0.221596 1.845254 2.785591 -10.422155 1.651026 -67.351845 -38.770641 1.421862 -35.340569 2.930453 2.833338 8.524705 12.647240 -67.298233 2.149531 12.114442 0.054873 65.638298 28.466200 -29.373028 34.555416 -2.608120 2.584713 -8.534408 -12.637552 2.035015 -8.490004 7.905447 -4.577004 32.866112 -5.161880 -5.239729 -35.883282 -0.296718 -0.856943 -9.421817 -16.129923 3.855053 30.566425 5.278150 4.930688 -29.538588 -11.924258 -4.060736 
